<?xml version="1.0" encoding="UTF-8"?>
<svg width="595px" height="726px" viewBox="0 0 595 726" version="1.1" xmlns="http://www.w3.org/2000/svg" xmlns:xlink="http://www.w3.org/1999/xlink">
    <!-- Generator: Sketch 49.3 (51167) - http://www.bohemiancoding.com/sketch -->
    <title>Group 7</title>
    <desc>Created with Sketch.</desc>
    <defs></defs>
    <g id="Page-2" stroke="none" stroke-width="1" fill="none" fill-rule="evenodd">
        <g id="HD-Desktop-Copy-2" transform="translate(-980.000000, -2028.000000)">
            <g id="Group-7" transform="translate(980.000000, 2028.000000)">
                <g id="Group-19" transform="translate(0.000000, 71.000000)">
                    <path d="M174.577595,161.941 C163.992595,161.941 157.167595,158.724 154.291595,152.378 C148.454595,139.498 164.109595,120.649 167.307595,117 L176.333595,124.906 C169.693595,132.508 163.496595,143.626 165.222595,147.426 C165.774595,148.642 168.521595,149.941 174.577595,149.941 L174.577595,161.941" id="Fill-57" fill="#F5F0EA"></path>
                    <path d="M5.96177228,218.421 L15.3927723,211 C25.3727723,223.684 18.8227723,232.036 14.9097723,237.026 C11.6987723,241.121 11.5907723,241.828 12.4707723,243.615 C13.8997723,246.52 15.8307723,247.437 19.4037723,248.934 C24.1267723,250.912 31.2627723,253.902 31.7057723,265.183 L19.7137723,265.654 C19.5717723,262.015 18.8377723,261.707 14.7657723,260.002 C10.7227723,258.307 5.18377228,255.986 1.70377228,248.912 C-2.67722772,240.007 2.42077228,233.506 5.46677228,229.622 C9.03577228,225.07 10.1137723,223.696 5.96177228,218.421" id="Fill-59" fill="#EC7C54"></path>
                    <path d="M236.282,653.116 C235.855,652.96 235.429,652.79 235,652.605 L239.747,641.585 C241.667,642.409 243.36,642.617 244.248,642.12 C245.319,641.523 246.212,639.438 246.638,636.543 C247.219,632.586 248.955,630.03 251.798,628.944 C256.169,627.272 259.665,630.189 262.471,632.532 C265.889,635.386 267.9,636.712 269.404,636.034 C270.189,635.68 270.208,632.43 270.223,630.058 C270.261,624.024 270.336,611.468 285.939,610 L287.063,621.947 C282.629,622.364 282.267,622.976 282.223,630.132 C282.191,635.435 282.142,643.449 274.342,646.97 C267.293,650.153 261.258,646.778 257.202,643.696 C255.739,647.793 253.362,650.777 250.097,652.599 C246.184,654.783 241.32,654.956 236.282,653.116" id="Fill-60" fill="#FFBFA0"></path>
                    <path d="M163.949,413.849 C156.279,413.849 150.883,412.011 147.471,408.243 C142.513,402.767 143.402,395.391 144.185,388.884 C144.697,384.627 145.227,380.227 143.922,377.783 C142.956,377.588 140.428,377.962 138.878,378.189 C132.416,379.141 118.972,381.123 116,362.933 L127.844,361 C128.909,367.529 130.162,367.343 137.128,366.317 C142.272,365.557 150.051,364.411 154.235,371.639 C157.639,377.522 156.821,384.32 156.099,390.318 C155.646,394.084 155.081,398.769 156.366,400.189 C156.746,400.609 158.475,401.961 164.732,401.841 L164.978,413.839 C164.631,413.845 164.287,413.849 163.949,413.849" id="Fill-61" fill="#F9DC5C"></path>
                    <path d="M462.792,292.092 C457.841,292.092 453.64,290.874 450.222,288.438 C442.137,282.673 442.184,272.884 442.216,271.787 L454.211,272.136 L448.214,271.961 L454.213,272.069 C454.213,272.114 454.223,276.606 457.245,278.707 C460.519,280.98 466.991,280.468 475.471,277.265 L479.714,288.49 C473.358,290.891 467.706,292.092 462.792,292.092" id="Fill-63" fill="#EC7C54"></path>
                    <path d="M559.815,391.654 C557.416,391.654 554.637,391.298 551.383,390.501 L554.239,378.845 C561.97,380.742 562.578,379.725 565.127,375.451 C568.614,369.607 573.883,360.775 594.101,360.775 L594.101,372.775 C580.697,372.775 578.257,376.864 575.432,381.599 C572.249,386.935 568.55,391.654 559.815,391.654" id="Fill-64" fill="#F5F0EA"></path>
                    <path d="M388,32.2359244 C388.106,31.6139244 388.171,29.5169244 388.224,27.8319244 C388.536,17.7919244 388.965,4.04192442 397.879,0.662924424 C405.83,-2.35207558 413.458,5.74292442 415.965,8.40192442 C419.693,12.3629244 423.267,14.0889244 425.763,13.1459244 C428.359,12.1649244 430.343,8.43992442 430.483,4.28792442 L442.476,4.69092442 C442.172,13.7589244 437.159,21.6679244 430.003,24.3719244 C425.741,25.9819244 417.109,27.1069244 407.232,16.6329244 C404.694,13.9389244 403.04,12.7999244 402.167,12.3249244 C400.612,15.5609244 400.32,24.9329244 400.218,28.2049244 C400.135,30.8849244 400.074,32.8209244 399.827,34.2649244 L388,32.2359244" id="Fill-65" fill="#F9DC5C"></path>
                    <path d="M573.548,266.025 C565.877,266.025 560.482,264.187 557.07,260.419 C552.112,254.943 553,247.567 553.784,241.06 C554.295,236.803 554.826,232.403 553.521,229.959 C552.555,229.764 550.027,230.138 548.477,230.365 C542.015,231.317 528.571,233.299 525.599,215.109 L537.443,213.176 C538.508,219.705 539.761,219.519 546.727,218.493 C551.871,217.733 559.65,216.587 563.833,223.815 C567.238,229.698 566.419,236.496 565.698,242.494 C565.245,246.26 564.68,250.945 565.965,252.365 C566.345,252.785 568.074,254.137 574.331,254.017 L574.577,266.015 C574.23,266.021 573.886,266.025 573.548,266.025" id="Fill-67" fill="#B8E986"></path>
                </g>
                <path d="M545.108081,599.919714 C544.739009,599.786133 544.370801,599.640564 544,599.482151 L548.10301,590.045857 C549.762538,590.751438 551.225861,590.929546 551.993393,590.503971 C552.919098,589.992767 553.690951,588.207407 554.059159,585.728453 C554.561339,582.340121 556.061829,580.151449 558.51914,579.22152 C562.297159,577.789807 565.318883,580.287599 567.744214,582.293882 C570.698519,584.737728 572.436702,585.873165 573.736665,585.292602 C574.41517,584.989476 574.431592,582.20654 574.444558,580.175425 C574.477402,575.008583 574.542228,564.257031 588.028485,563 L589,573.230073 C585.167528,573.587145 584.854638,574.111193 584.816607,580.23879 C584.788948,584.779686 584.746595,591.641978 578.004763,594.656968 C571.912049,597.382533 566.695772,594.492561 563.19002,591.853481 C561.925494,595.361693 559.870964,597.916856 557.048902,599.477013 C553.66675,601.347146 549.462613,601.495284 545.108081,599.919714" id="Fill-60-Copy" fill="#EC7C54"></path>
                <path d="M280.916,51.269 L269,49.848 C270.912,33.822 281.449,32.548 287.745,31.786 C292.911,31.161 293.487,30.737 294.129,28.851 C295.173,25.787 294.455,23.773 292.987,20.188 C291.047,15.45 288.115,8.29 295.778,0 L304.591,8.146 C302.118,10.82 302.42,11.557 304.093,15.642 C305.754,19.699 308.029,25.257 305.488,32.72 C302.289,42.114 294.087,43.106 289.186,43.699 C283.444,44.393 281.711,44.603 280.916,51.269" id="Fill-58" fill="#B8E986"></path>
                <path d="M385.651,563.214989 C384.501,563.214989 383.287,563.123989 382,562.931989 L383.771,551.062989 C389.356,551.896989 391.14,549.491989 394.823,540.178989 C397.291,533.938989 400.088,526.867989 407.296,524.634989 C412.931,522.886989 419.49,524.725989 427.942,530.423989 L421.233,540.372989 C413.984,535.485989 411.307,535.952989 410.847,536.096989 C409.132,536.627989 407.386,541.043989 405.982,544.591989 C403.171,551.701989 398.616,563.214989 385.651,563.214989" id="Fill-66" fill="#F9DC5C"></path>
            </g>
        </g>
    </g>
</svg>