<!--?xml version="1.0" encoding="UTF-8"?-->
<svg width="870px" height="528px" viewBox="0 0 870 528" version="1.1" xmlns="http://www.w3.org/2000/svg" xmlns:xlink="http://www.w3.org/1999/xlink" style="">
    <!-- Generator: Sketch 49.3 (51167) - http://www.bohemiancoding.com/sketch -->
    <title>Stroke 3</title>
    <desc>Created with Sketch.</desc>
    <defs></defs>
    <g id="Page-1" stroke="none" stroke-width="1" fill="none" fill-rule="evenodd">
        <g id="HD-Desktop" transform="translate(-38.000000, -862.000000)" stroke="#333230" stroke-width="4">
            <path d="M898.951,1388.67011 C819.446846,1306.76804 850.266567,1118.0581 650.577877,1151.06449 C511.555766,1174.04355 419.687416,1162.89481 350.897137,1099.39628 C318.224932,1069.23752 105.295726,908.806631 88.5763368,894.667517 C83.7144948,890.55657 310.253063,984.131351 308.71579,978.170396 C297.405323,980.829886 232.84564,1023.62268 161.408248,1052.31266 C149.587833,1029.66862 56.9966432,885.457082 40,868.033832 C158.642312,920.485119 320.891849,978.563172 320.891849,978.563172 C320.891849,978.563172 320.513926,1022.98318 335.641582,1069.82833 C334.826324,1054.26169 341.357464,1016.35962 357.6717,970.402341 C339.547063,970.400691 85.0339255,886.072652 55.3933575,868 C110.678244,876.235096 522.782066,964.734318 522.782066,964.734318 C482.904564,968.080341 411.181668,969.10849 364.340642,973.376217 C362.00544,973.589108 348.92088,1024.93716 347.811865,1029.46398 C343.955893,1045.19731 335.500479,1064.11327 344.187763,1079.30859 C365.172403,1116.01253 429.015023,1134.10168 444.632824,1134.10168 C559.535512,1134.10168 616.960863,1103.84142 683.584272,1071.84915 C836.280107,998.523789 892.877823,1063.60745 898.951,1068.54851" id="Stroke-3" transform="translate(469.475500, 1128.335053) scale(-1, 1) translate(-469.475500, -1128.335053) " class="nKBTeVeL_0"></path>
        </g>
    </g>
<style data-made-with="vivus-instant">.nKBTeVeL_0{stroke-dasharray:3813 3815;stroke-dashoffset:3814;animation:nKBTeVeL_draw 3333ms ease-in-out 0ms forwards;}@keyframes nKBTeVeL_draw{100%{stroke-dashoffset:0;}}@keyframes nKBTeVeL_fade{0%{stroke-opacity:1;}95.65217391304348%{stroke-opacity:1;}100%{stroke-opacity:0;}}</style></svg>