<?xml version="1.0" encoding="UTF-8"?>
<svg width="94px" height="35px" viewBox="0 0 94 35" version="1.1" xmlns="http://www.w3.org/2000/svg" xmlns:xlink="http://www.w3.org/1999/xlink">
    <!-- Generator: Sketch 49.3 (51167) - http://www.bohemiancoding.com/sketch -->
    <title>Group 6 Copy 7</title>
    <desc>Created with Sketch.</desc>
    <defs></defs>
    <g id="Page-1" stroke="none" stroke-width="1" fill="none" fill-rule="evenodd">
        <g id="HD-Desktop" transform="translate(-254.000000, -47.000000)">
            <g id="Group-6-Copy-7" transform="translate(254.000000, 47.000000)">
                <path d="M5.29274238,17.56823 C5.29274238,19.3617515 12.6487572,18.1660705 12.6487572,23.9871489 C12.6487572,27.6056571 9.65850728,29.1474563 6.42903735,29.1474563 C3.43878742,29.1474563 1.16619747,27.9517753 0,25.4030869 L3.88732491,23.0746555 C4.2760574,24.2703365 5.11332738,24.9311076 6.42903735,24.9311076 C7.50552733,24.9311076 8.04377232,24.5849894 8.04377232,23.9556836 C8.04377232,22.2250927 0.687757484,23.1375861 0.687757484,17.6940911 C0.687757484,14.2643747 3.43878742,12.5337838 6.54864735,12.5337838 C8.9707498,12.5337838 11.1237297,13.6665342 12.3796347,15.9005697 L8.5521148,18.0716746 C8.13347981,17.2535771 7.53542983,16.6872019 6.54864735,16.6872019 C5.77118237,16.6872019 5.29274238,17.0018548 5.29274238,17.56823 Z M31.4873318,12.9742978 L36.2717317,12.9742978 L31.4873318,28.7069422 L27.3009819,28.7069422 L24.9087819,20.3057101 L22.516582,28.7069422 L18.3302321,28.7069422 L13.5458322,12.9742978 L18.3302321,12.9742978 L20.483212,21.4069952 L22.815607,12.9742978 L27.0019569,12.9742978 L29.3343518,21.4069952 L31.4873318,12.9742978 Z M38.0658816,28.7069422 L38.0658816,12.9742978 L42.5512565,12.9742978 L42.5512565,28.7069422 L38.0658816,28.7069422 Z M54.7813787,12.5337838 C58.6986062,12.5337838 61.9280761,16.152292 61.9280761,20.84062 C61.9280761,25.5289481 58.6986062,29.1474563 54.7813787,29.1474563 C52.7779113,29.1474563 51.3126888,28.4237546 50.3259064,27.2280737 L50.3259064,35 L45.8405315,35 L45.8405315,12.9742978 L50.3259064,12.9742978 L50.3259064,14.4531664 C51.3126888,13.2574854 52.7779113,12.5337838 54.7813787,12.5337838 Z M53.8843038,24.6793853 C55.9475762,24.6793853 57.4427012,23.2005167 57.4427012,20.84062 C57.4427012,18.4807234 55.9475762,17.0018548 53.8843038,17.0018548 C51.8210313,17.0018548 50.3259064,18.4807234 50.3259064,20.84062 C50.3259064,23.2005167 51.8210313,24.6793853 53.8843038,24.6793853 Z M68.4767234,22.7285374 C69.0448709,24.3647324 70.4203859,24.9311076 72.0650234,24.9311076 C73.2910258,24.9311076 74.3376133,24.427663 74.9356633,23.7354266 L78.5239632,25.9065315 C77.0587407,28.0461712 74.8459558,29.1474563 72.0052184,29.1474563 C66.891891,29.1474563 63.722226,25.5289481 63.722226,20.84062 C63.722226,16.152292 66.951696,12.5337838 71.6762909,12.5337838 C76.0420558,12.5337838 79.2715257,16.0893614 79.2715257,20.84062 C79.2715257,21.5013911 79.2117207,22.1306969 79.0921107,22.7285374 L68.4767234,22.7285374 Z M68.3870159,19.204425 L74.8160533,19.204425 C74.3376133,17.3794383 72.9920008,16.7186672 71.6463884,16.7186672 C69.9419459,16.7186672 68.8056509,17.5996953 68.3870159,19.204425 Z" id="swipe-copy-7" fill="#333230"></path>
                <g id="Group-5" transform="translate(74.081128, 0.000000)" fill="#EC7C54">
                    <path d="M10.5629427,9.04433046 L18.6874519,9.04433046 C19.0044959,9.04433046 19.1194638,9.07734132 19.2353703,9.13932883 C19.3512769,9.20131634 19.442241,9.29228049 19.5042285,9.40818705 C19.5662161,9.52409361 19.5992269,9.63906144 19.5992269,9.95610548 L19.5992269,12.5640391 C19.5992269,12.8810831 19.5662161,12.9960509 19.5042285,13.1119575 C19.442241,13.227864 19.3512769,13.3188282 19.2353703,13.3808157 C19.1194638,13.4428032 19.0044959,13.4758141 18.6874519,13.4758141 L9.83074262,13.4758141 C9.77898357,13.4788681 9.71981211,13.4804156 9.65116765,13.4804156 L7.04323407,13.4804156 C6.76120745,13.4804156 6.63908368,13.4542941 6.53396036,13.4048908 C6.51740588,13.3974286 6.50137259,13.3894 6.48532128,13.3808157 C6.36941472,13.3188282 6.27845057,13.227864 6.21646307,13.1119575 C6.15447556,12.9960509 6.12146469,12.8810831 6.12146469,12.5640391 L6.12146469,9.95610548 C6.12146469,9.8547248 6.12484011,9.77400679 6.13145905,9.70731348 L6.13145905,0.9144284 C6.13145905,0.597384361 6.16446992,0.482416532 6.22645743,0.36650997 C6.28844493,0.250603408 6.37940908,0.15963926 6.49531564,0.0976517523 C6.61122221,0.0356642448 6.72619004,0.00265337763 7.04323407,0.00265337763 L9.65116765,0.00265337763 C9.96821169,0.00265337763 10.0831795,0.0356642448 10.1990861,0.0976517523 C10.3149926,0.15963926 10.4059568,0.250603408 10.4679443,0.36650997 C10.5299318,0.482416532 10.5629427,0.597384361 10.5629427,0.9144284 L10.5629427,9.04433046 Z" id="Combined-Shape-Copy" transform="translate(12.857374, 6.741860) scale(-1, 1) rotate(90.000000) translate(-12.857374, -6.741860) "></path>
                    <path d="M4.51999025,14.8913327 L12.5271555,14.8913327 C12.8441995,14.8913327 12.9591673,14.9243435 13.0750739,14.986331 C13.1909804,15.0483186 13.2819446,15.1392827 13.3439321,15.2551893 C13.4059196,15.3710958 13.4389305,15.4860637 13.4389305,15.8031077 L13.4389305,18.4502287 C13.4389305,18.7672728 13.4059196,18.8822406 13.3439321,18.9981472 C13.2819446,19.1140537 13.1909804,19.2050179 13.0750739,19.2670054 C12.9591673,19.3289929 12.8441995,19.3620038 12.5271555,19.3620038 L1.14826303,19.3620038 C0.85404086,19.3620038 0.73384976,19.3335743 0.625435732,19.2799396 C0.535116451,19.2639584 0.474276533,19.2393337 0.413175747,19.2066567 C0.297269185,19.1446692 0.206305037,19.053705 0.14431753,18.9377984 C0.0823300221,18.8218919 0.0493191549,18.7069241 0.0493191549,18.38988 L0.0493191549,7.01098759 C0.0493191549,6.69394355 0.0823300221,6.57897572 0.14431753,6.46306916 C0.206305037,6.3471626 0.297269185,6.25619845 0.413175747,6.19421094 C0.529082309,6.13222344 0.644050138,6.09921257 0.961094177,6.09921257 L3.60821522,6.09921257 C3.92525926,6.09921257 4.04022709,6.13222344 4.15613365,6.19421094 C4.27204021,6.25619845 4.36300436,6.3471626 4.42499187,6.46306916 C4.48697938,6.57897572 4.51999025,6.69394355 4.51999025,7.01098759 L4.51999025,14.8913327 Z" id="Combined-Shape" transform="translate(6.736318, 12.733258) scale(-1, 1) rotate(90.000000) translate(-6.736318, -12.733258) "></path>
                </g>
            </g>
        </g>
    </g>
</svg>